<?xml version="1.0" encoding="utf-8"?>
<!-- Generator: Adobe Illustrator 24.0.1, SVG Export Plug-In . SVG Version: 6.00 Build 0)  -->
<svg version="1.1" id="Layer_1" xmlns="http://www.w3.org/2000/svg" xmlns:xlink="http://www.w3.org/1999/xlink" x="0px" y="0px"
	 viewBox="0 0 540 540" style="enable-background:new 0 0 540 540;" xml:space="preserve">
<style type="text/css">
	.st0{fill:url(#SVGID_1_);}
	.st1{fill:url(#SVGID_2_);}
	.st2{fill:url(#SVGID_3_);}
	.st3{fill:url(#SVGID_4_);}
	.st4{fill:url(#SVGID_5_);}
	.st5{fill:url(#SVGID_6_);}
</style>
<g>
	<linearGradient id="SVGID_1_" gradientUnits="userSpaceOnUse" x1="245.6488" y1="379.4271" x2="529.0169" y2="379.4271">
		<stop  offset="0" style="stop-color:#AE7F2D"/>
		<stop  offset="0.2119" style="stop-color:#DAB85B"/>
		<stop  offset="0.328" style="stop-color:#F5DB7A"/>
		<stop  offset="0.524" style="stop-color:#FBF0A4"/>
		<stop  offset="0.7298" style="stop-color:#F5DB7A"/>
		<stop  offset="1" style="stop-color:#AE7F2D"/>
	</linearGradient>
	<path class="st0" d="M245.65,250.24h283.37v94.1h-13.48c-2.31-10.21-8.26-30.07-24.68-48.8c-22.61-25.79-50.54-32.85-60.33-34.85
		c0,82.64,0,165.28,0,247.93c-5.95,0-11.9,0-17.85,0c0.19-1.12,2.85-18.51-9.57-29.74c-10.7-9.67-28.23-10.84-39.53-0.93
		c-8.29,7.26-11.71,19.15-9.14,30.67c-21.37,0-42.73,0-64.1,0c0.45-0.13,0.89-0.26,1.34-0.4c6.52-1.99,21.78-7.61,34.88-22.61
		c12.37-14.17,16.26-29.21,17.6-36.02c0-35.09,0-70.17,0-105.26c0-27.88,0-55.77,0-83.65c-10.61,2.66-30.75,9.25-50.05,26.49
		c-23.79,21.25-32.56,46.39-35.65,57.16c-4.27,0-8.53,0-12.8,0V250.24z"/>
	<linearGradient id="SVGID_2_" gradientUnits="userSpaceOnUse" x1="267.7279" y1="113.4633" x2="446.5554" y2="113.4633">
		<stop  offset="0" style="stop-color:#AE7F2D"/>
		<stop  offset="0.2119" style="stop-color:#DAB85B"/>
		<stop  offset="0.328" style="stop-color:#F5DB7A"/>
		<stop  offset="0.524" style="stop-color:#FBF0A4"/>
		<stop  offset="0.7298" style="stop-color:#F5DB7A"/>
		<stop  offset="1" style="stop-color:#AE7F2D"/>
	</linearGradient>
	<path class="st1" d="M270.15,41.88c-0.4,0.03-2.42,0.2-2.42,0.46c-0.01,0.81,21.37-0.34,44.69,3.9
		c19.07,3.47,31.98,9.18,39.75,12.69c18.25,8.23,31.95,14.48,32.81,24.7c0.34,4.05-1.32,10.58-13.25,19.51
		c-1.99,1.84-16.41,15.65-15.54,37.59c0.05,1.14,1.5,26.79,23.31,39.25c1.55,0.89,20.25,11.15,39.99,1.67
		c19.47-9.35,24.32-30.39,25.59-35.92c6.44-27.93-9.99-50.88-13.71-56.14c-0.06-0.09-0.61-0.86-1.23-1.67
		c-20.53-27.11-60.65-29.99-115.88-43.67C314.25,44.23,296.13,39.74,270.15,41.88z"/>
	<linearGradient id="SVGID_3_" gradientUnits="userSpaceOnUse" x1="10.9831" y1="270" x2="431.3648" y2="270">
		<stop  offset="0" style="stop-color:#AE7F2D"/>
		<stop  offset="0.2119" style="stop-color:#DAB85B"/>
		<stop  offset="0.328" style="stop-color:#F5DB7A"/>
		<stop  offset="0.524" style="stop-color:#FBF0A4"/>
		<stop  offset="0.7298" style="stop-color:#F5DB7A"/>
		<stop  offset="1" style="stop-color:#AE7F2D"/>
	</linearGradient>
	<path class="st2" d="M431.36,89.56c-1.3-1.68-3.27-4.15-5.82-6.99C387.08,39.62,328.68,35,292.82,32.68
		c-46.3-3-125.72-8.18-195.67,47.47c-43.71,34.77-62.82,76.57-68.5,90.08c-30.2,71.85-13.72,136.72-8.23,157.07
		c3.72,13.8,29.08,103.18,108.83,147.78c33.14,18.53,68.34,25.24,83.76,28.17c31.03,5.91,57.65,6.28,76.72,5.36
		c-0.77-0.09-1.92-0.22-3.31-0.4c-62.68-7.99-105.98-41.24-123.42-54.98c-11.84-9.33-56.83-46.39-82.09-111
		c-8.99-23.01-25.76-81.08-9.14-153.36c3.68-15.98,12.03-42.59,33.39-69.98c37.03-47.48,87.46-61.17,110.53-67.43
		c57.44-15.59,104.72-5.01,126.96,0.24C382.44,61.14,412.51,77.44,431.36,89.56z"/>
	<linearGradient id="SVGID_4_" gradientUnits="userSpaceOnUse" x1="341.5537" y1="38.6602" x2="341.5537" y2="38.6602">
		<stop  offset="0" style="stop-color:#AE7F2D"/>
		<stop  offset="0.2119" style="stop-color:#DAB85B"/>
		<stop  offset="0.328" style="stop-color:#F5DB7A"/>
		<stop  offset="0.524" style="stop-color:#FBF0A4"/>
		<stop  offset="0.7298" style="stop-color:#F5DB7A"/>
		<stop  offset="1" style="stop-color:#AE7F2D"/>
	</linearGradient>
	<path class="st3" d="M341.55,38.66"/>
	<linearGradient id="SVGID_5_" gradientUnits="userSpaceOnUse" x1="142.3375" y1="417.5111" x2="142.3375" y2="417.5111">
		<stop  offset="0" style="stop-color:#AE7F2D"/>
		<stop  offset="0.2119" style="stop-color:#DAB85B"/>
		<stop  offset="0.328" style="stop-color:#F5DB7A"/>
		<stop  offset="0.524" style="stop-color:#FBF0A4"/>
		<stop  offset="0.7298" style="stop-color:#F5DB7A"/>
		<stop  offset="1" style="stop-color:#AE7F2D"/>
	</linearGradient>
	<path class="st4" d="M142.34,417.51"/>
	<linearGradient id="SVGID_6_" gradientUnits="userSpaceOnUse" x1="47.2163" y1="398.3888" x2="344.1633" y2="398.3888">
		<stop  offset="0" style="stop-color:#AE7F2D"/>
		<stop  offset="0.2119" style="stop-color:#DAB85B"/>
		<stop  offset="0.328" style="stop-color:#F5DB7A"/>
		<stop  offset="0.524" style="stop-color:#FBF0A4"/>
		<stop  offset="0.7298" style="stop-color:#F5DB7A"/>
		<stop  offset="1" style="stop-color:#AE7F2D"/>
	</linearGradient>
	<path class="st5" d="M67.25,287.85c2.12,19.2,12.09,88.51,70.18,139.84c14.31,12.65,54.19,47.89,114.59,48.8
		c44.49,0.67,77.64-17.63,92.12-26.88c0.13,4.9-0.33,10.42-1.92,16.24c-7.27,26.56-32.49,38.84-38.43,41.55
		c-8.63,1.42-21.26,2.51-36.22,0.23c-14.37-2.19-25.76-6.69-33.48-10.46c0,0-2.24-0.68-4.57-1.44
		c-54.82-17.8-162.18-52.66-179.85-121.94C46.42,361.01,42.29,331.72,67.25,287.85z"/>
</g>
</svg>
